<?xml version="1.0" encoding="UTF-8" standalone="no"?><!DOCTYPE svg PUBLIC "-//W3C//DTD SVG 1.1//EN" "http://www.w3.org/Graphics/SVG/1.1/DTD/svg11.dtd"><svg width="100%" height="100%" viewBox="0 0 238 209" version="1.1" xmlns="http://www.w3.org/2000/svg" xmlns:xlink="http://www.w3.org/1999/xlink" xml:space="preserve" xmlns:serif="http://www.serif.com/" style="fill-rule:evenodd;clip-rule:evenodd;stroke-linejoin:round;stroke-miterlimit:2;"><g><g><path d="M19.538,189.054c-3.685,-1.489 -5.975,-2.581 -6.872,-3.283c-0.897,-0.794 -1.704,-1.787 -2.428,-2.978c-4.036,-6.765 -6.961,-26.848 -8.755,-60.255c-0.448,-7.452 -0.676,-14.76 -0.676,-21.922c-0,-7.155 0.138,-13.768 0.407,-19.838c0.269,-6.163 0.628,-11.981 1.076,-17.448c0.987,-12.325 1.884,-19.731 2.698,-22.221l1.614,-5.666c1.435,-4.772 4.719,-8.3 9.838,-10.59c2.242,-0.993 5.167,-2.139 8.755,-3.429l11.859,-4.475c4.401,-1.489 8.982,-2.985 13.743,-4.474l13.749,-4.475c9.251,-2.886 17.068,-5.07 23.443,-6.559l7.278,36.24c-2.249,0.595 -4.988,1.244 -8.224,1.939l-32.873,6.857l-9.3,2.093c-2.697,0.694 -4.719,1.237 -6.064,1.634c-2.518,11.14 -3.774,27.298 -3.774,48.472c0,27.642 1.532,48.022 4.581,61.148c3.774,0.993 7.865,1.986 12.267,2.986l27.754,6.261l13.073,2.68l-7.547,34.454c-8.086,-1.589 -15.454,-3.284 -22.097,-5.071c-25.243,-6.658 -39.752,-10.69 -43.525,-12.08Z" style="fill:#ff6f1e;fill-rule:nonzero;"/></g><g><path d="M152.673,167.43l2.828,-0.298c2.96,-0.497 5.975,-0.947 9.024,-1.344c3.146,-0.496 6.382,-1.092 9.707,-1.787c7.989,-1.497 14.322,-3.085 18.993,-4.772c5.933,-27.146 8.899,-55.582 8.899,-85.308c0,-11.133 -0.496,-20.778 -1.483,-28.933c-24.436,-5.07 -55.426,-7.605 -92.977,-7.605l-3.635,-0l6.064,-36.095l2.828,0c34.136,0 63.822,3.032 89.065,9.102c4.85,1.092 8.445,2.138 10.783,3.131c2.422,0.993 4.802,2.68 7.141,5.07c2.331,2.382 4.622,5.017 6.871,7.903c5.209,7.056 7.996,12.431 8.355,16.104c0.717,7.361 1.076,15.616 1.076,24.763c-0,9.141 -0.359,18.785 -1.076,28.933c-0.718,10.14 -1.801,20.128 -3.236,29.971c-2.967,21.38 -6.961,38.881 -11.99,52.496c-1.083,3.085 -2.291,5.322 -3.643,6.712c-1.256,1.298 -3.863,2.688 -7.81,4.177c-3.953,1.39 -8.851,2.734 -14.687,4.032c-5.754,1.29 -12.177,2.382 -19.269,3.275c-13.205,1.696 -30.817,3.131 -52.825,4.33l-0,-142.875l33.149,-7.903l0.538,32.063l-2.69,84.858Z" style="fill:#ff6f1e;fill-rule:nonzero;"/></g></g></svg>